<svg xmlns="http://www.w3.org/2000/svg" viewBox="0 0 58 58"><path d="M41.536 58H16.464C15.103 58 14 56.897 14 55.536V6.464C14 5.103 15.103 4 16.464 4h25.072C42.897 4 44 5.103 44 6.464v49.072C44 56.897 42.897 58 41.536 58z" fill="#424a60"/><path d="M24 0h10v4H24z" fill="#d8a852"/><path d="M36 29h-4V16.068c.012-.058-.064-.092-.1-.046L22 32h5l.002 13.93c-.016.06.06.097.098.05L36 29z" fill="#efce4a"/><path d="M41.536,4H16.464C15.103,4,14,5.103,14,6.464V13h30V6.464C44,5.103,42.897,4,41.536,4z" fill="#ea6248"/></svg>