<svg xmlns="http://www.w3.org/2000/svg" height="612.00002pt" version="1.1" viewBox="0 0 612.00002 612.00002" width="612.00002pt">
<g id="surface1">
<path d="M 530.398438 295.800781 L 612 295.800781 L 612 316.199219 L 530.398438 316.199219 Z M 530.398438 295.800781 " style=" stroke:none;fill-rule:nonzero;fill:rgb(99.215686%,71.372549%,18.431373%);fill-opacity:1;" />
<path d="M 530.398438 244.800781 L 612 244.800781 L 612 265.199219 L 530.398438 265.199219 Z M 530.398438 244.800781 " style=" stroke:none;fill-rule:nonzero;fill:rgb(99.215686%,71.372549%,18.431373%);fill-opacity:1;" />
<path d="M 530.398438 193.800781 L 612 193.800781 L 612 214.199219 L 530.398438 214.199219 Z M 530.398438 193.800781 " style=" stroke:none;fill-rule:nonzero;fill:rgb(99.215686%,71.372549%,18.431373%);fill-opacity:1;" />
<path d="M 530.398438 142.800781 L 612 142.800781 L 612 163.199219 L 530.398438 163.199219 Z M 530.398438 142.800781 " style=" stroke:none;fill-rule:nonzero;fill:rgb(99.215686%,71.372549%,18.431373%);fill-opacity:1;" />
<path d="M 530.398438 91.800781 L 612 91.800781 L 612 112.199219 L 530.398438 112.199219 Z M 530.398438 91.800781 " style=" stroke:none;fill-rule:nonzero;fill:rgb(99.215686%,71.372549%,18.431373%);fill-opacity:1;" />
<path d="M 530.398438 499.800781 L 612 499.800781 L 612 520.199219 L 530.398438 520.199219 Z M 530.398438 499.800781 " style=" stroke:none;fill-rule:nonzero;fill:rgb(99.215686%,71.372549%,18.431373%);fill-opacity:1;" />
<path d="M 530.398438 448.800781 L 612 448.800781 L 612 469.199219 L 530.398438 469.199219 Z M 530.398438 448.800781 " style=" stroke:none;fill-rule:nonzero;fill:rgb(99.215686%,71.372549%,18.431373%);fill-opacity:1;" />
<path d="M 530.398438 397.800781 L 612 397.800781 L 612 418.199219 L 530.398438 418.199219 Z M 530.398438 397.800781 " style=" stroke:none;fill-rule:nonzero;fill:rgb(99.215686%,71.372549%,18.431373%);fill-opacity:1;" />
<path d="M 530.398438 346.800781 L 612 346.800781 L 612 367.199219 L 530.398438 367.199219 Z M 530.398438 346.800781 " style=" stroke:none;fill-rule:nonzero;fill:rgb(99.215686%,71.372549%,18.431373%);fill-opacity:1;" />
<path d="M 530.398438 295.800781 L 612 295.800781 L 612 316.199219 L 530.398438 316.199219 Z M 530.398438 295.800781 " style=" stroke:none;fill-rule:nonzero;fill:rgb(99.215686%,71.372549%,18.431373%);fill-opacity:1;" />
<path d="M 530.398438 244.800781 L 612 244.800781 L 612 265.199219 L 530.398438 265.199219 Z M 530.398438 244.800781 " style=" stroke:none;fill-rule:nonzero;fill:rgb(99.215686%,71.372549%,18.431373%);fill-opacity:1;" />
<path d="M 530.398438 193.800781 L 612 193.800781 L 612 214.199219 L 530.398438 214.199219 Z M 530.398438 193.800781 " style=" stroke:none;fill-rule:nonzero;fill:rgb(99.215686%,71.372549%,18.431373%);fill-opacity:1;" />
<path d="M 530.398438 142.800781 L 612 142.800781 L 612 163.199219 L 530.398438 163.199219 Z M 530.398438 142.800781 " style=" stroke:none;fill-rule:nonzero;fill:rgb(99.215686%,71.372549%,18.431373%);fill-opacity:1;" />
<path d="M 530.398438 91.800781 L 612 91.800781 L 612 112.199219 L 530.398438 112.199219 Z M 530.398438 91.800781 " style=" stroke:none;fill-rule:nonzero;fill:rgb(99.215686%,71.372549%,18.431373%);fill-opacity:1;" />
<path d="M 530.398438 499.800781 L 612 499.800781 L 612 520.199219 L 530.398438 520.199219 Z M 530.398438 499.800781 " style=" stroke:none;fill-rule:nonzero;fill:rgb(99.215686%,71.372549%,18.431373%);fill-opacity:1;" />
<path d="M 530.398438 448.800781 L 612 448.800781 L 612 469.199219 L 530.398438 469.199219 Z M 530.398438 448.800781 " style=" stroke:none;fill-rule:nonzero;fill:rgb(99.215686%,71.372549%,18.431373%);fill-opacity:1;" />
<path d="M 530.398438 397.800781 L 612 397.800781 L 612 418.199219 L 530.398438 418.199219 Z M 530.398438 397.800781 " style=" stroke:none;fill-rule:nonzero;fill:rgb(99.215686%,71.372549%,18.431373%);fill-opacity:1;" />
<path d="M 530.398438 346.800781 L 612 346.800781 L 612 367.199219 L 530.398438 367.199219 Z M 530.398438 346.800781 " style=" stroke:none;fill-rule:nonzero;fill:rgb(99.215686%,71.372549%,18.431373%);fill-opacity:1;" />
<path d="M 295.800781 0 L 316.199219 0 L 316.199219 81.601562 L 295.800781 81.601562 Z M 295.800781 0 " style=" stroke:none;fill-rule:nonzero;fill:rgb(99.215686%,71.372549%,18.431373%);fill-opacity:1;" />
<path d="M 244.800781 0 L 265.199219 0 L 265.199219 81.601562 L 244.800781 81.601562 Z M 244.800781 0 " style=" stroke:none;fill-rule:nonzero;fill:rgb(99.215686%,71.372549%,18.431373%);fill-opacity:1;" />
<path d="M 193.800781 0 L 214.199219 0 L 214.199219 81.601562 L 193.800781 81.601562 Z M 193.800781 0 " style=" stroke:none;fill-rule:nonzero;fill:rgb(99.215686%,71.372549%,18.431373%);fill-opacity:1;" />
<path d="M 142.800781 0 L 163.199219 0 L 163.199219 81.601562 L 142.800781 81.601562 Z M 142.800781 0 " style=" stroke:none;fill-rule:nonzero;fill:rgb(99.215686%,71.372549%,18.431373%);fill-opacity:1;" />
<path d="M 91.800781 0 L 112.199219 0 L 112.199219 81.601562 L 91.800781 81.601562 Z M 91.800781 0 " style=" stroke:none;fill-rule:nonzero;fill:rgb(99.215686%,71.372549%,18.431373%);fill-opacity:1;" />
<path d="M 499.800781 0 L 520.199219 0 L 520.199219 81.601562 L 499.800781 81.601562 Z M 499.800781 0 " style=" stroke:none;fill-rule:nonzero;fill:rgb(99.215686%,71.372549%,18.431373%);fill-opacity:1;" />
<path d="M 448.800781 0 L 469.199219 0 L 469.199219 81.601562 L 448.800781 81.601562 Z M 448.800781 0 " style=" stroke:none;fill-rule:nonzero;fill:rgb(99.215686%,71.372549%,18.431373%);fill-opacity:1;" />
<path d="M 397.800781 0 L 418.199219 0 L 418.199219 81.601562 L 397.800781 81.601562 Z M 397.800781 0 " style=" stroke:none;fill-rule:nonzero;fill:rgb(99.215686%,71.372549%,18.431373%);fill-opacity:1;" />
<path d="M 346.800781 0 L 367.199219 0 L 367.199219 81.601562 L 346.800781 81.601562 Z M 346.800781 0 " style=" stroke:none;fill-rule:nonzero;fill:rgb(99.215686%,71.372549%,18.431373%);fill-opacity:1;" />
<path d="M 295.800781 530.398438 L 316.199219 530.398438 L 316.199219 612 L 295.800781 612 Z M 295.800781 530.398438 " style=" stroke:none;fill-rule:nonzero;fill:rgb(99.215686%,71.372549%,18.431373%);fill-opacity:1;" />
<path d="M 244.800781 530.398438 L 265.199219 530.398438 L 265.199219 612 L 244.800781 612 Z M 244.800781 530.398438 " style=" stroke:none;fill-rule:nonzero;fill:rgb(99.215686%,71.372549%,18.431373%);fill-opacity:1;" />
<path d="M 193.800781 530.398438 L 214.199219 530.398438 L 214.199219 612 L 193.800781 612 Z M 193.800781 530.398438 " style=" stroke:none;fill-rule:nonzero;fill:rgb(99.215686%,71.372549%,18.431373%);fill-opacity:1;" />
<path d="M 142.800781 530.398438 L 163.199219 530.398438 L 163.199219 612 L 142.800781 612 Z M 142.800781 530.398438 " style=" stroke:none;fill-rule:nonzero;fill:rgb(99.215686%,71.372549%,18.431373%);fill-opacity:1;" />
<path d="M 91.800781 530.398438 L 112.199219 530.398438 L 112.199219 612 L 91.800781 612 Z M 91.800781 530.398438 " style=" stroke:none;fill-rule:nonzero;fill:rgb(99.215686%,71.372549%,18.431373%);fill-opacity:1;" />
<path d="M 499.800781 530.398438 L 520.199219 530.398438 L 520.199219 612 L 499.800781 612 Z M 499.800781 530.398438 " style=" stroke:none;fill-rule:nonzero;fill:rgb(99.215686%,71.372549%,18.431373%);fill-opacity:1;" />
<path d="M 448.800781 530.398438 L 469.199219 530.398438 L 469.199219 612 L 448.800781 612 Z M 448.800781 530.398438 " style=" stroke:none;fill-rule:nonzero;fill:rgb(99.215686%,71.372549%,18.431373%);fill-opacity:1;" />
<path d="M 397.800781 530.398438 L 418.199219 530.398438 L 418.199219 612 L 397.800781 612 Z M 397.800781 530.398438 " style=" stroke:none;fill-rule:nonzero;fill:rgb(99.215686%,71.372549%,18.431373%);fill-opacity:1;" />
<path d="M 346.800781 530.398438 L 367.199219 530.398438 L 367.199219 612 L 346.800781 612 Z M 346.800781 530.398438 " style=" stroke:none;fill-rule:nonzero;fill:rgb(99.215686%,71.372549%,18.431373%);fill-opacity:1;" />
<path d="M 0 295.800781 L 81.601562 295.800781 L 81.601562 316.199219 L 0 316.199219 Z M 0 295.800781 " style=" stroke:none;fill-rule:nonzero;fill:rgb(99.215686%,71.372549%,18.431373%);fill-opacity:1;" />
<path d="M 0 244.800781 L 81.601562 244.800781 L 81.601562 265.199219 L 0 265.199219 Z M 0 244.800781 " style=" stroke:none;fill-rule:nonzero;fill:rgb(99.215686%,71.372549%,18.431373%);fill-opacity:1;" />
<path d="M 0 193.800781 L 81.601562 193.800781 L 81.601562 214.199219 L 0 214.199219 Z M 0 193.800781 " style=" stroke:none;fill-rule:nonzero;fill:rgb(99.215686%,71.372549%,18.431373%);fill-opacity:1;" />
<path d="M 0 142.800781 L 81.601562 142.800781 L 81.601562 163.199219 L 0 163.199219 Z M 0 142.800781 " style=" stroke:none;fill-rule:nonzero;fill:rgb(99.215686%,71.372549%,18.431373%);fill-opacity:1;" />
<path d="M 0 91.800781 L 81.601562 91.800781 L 81.601562 112.199219 L 0 112.199219 Z M 0 91.800781 " style=" stroke:none;fill-rule:nonzero;fill:rgb(99.215686%,71.372549%,18.431373%);fill-opacity:1;" />
<path d="M 0 499.800781 L 81.601562 499.800781 L 81.601562 520.199219 L 0 520.199219 Z M 0 499.800781 " style=" stroke:none;fill-rule:nonzero;fill:rgb(99.215686%,71.372549%,18.431373%);fill-opacity:1;" />
<path d="M 0 448.800781 L 81.601562 448.800781 L 81.601562 469.199219 L 0 469.199219 Z M 0 448.800781 " style=" stroke:none;fill-rule:nonzero;fill:rgb(99.215686%,71.372549%,18.431373%);fill-opacity:1;" />
<path d="M 0 397.800781 L 81.601562 397.800781 L 81.601562 418.199219 L 0 418.199219 Z M 0 397.800781 " style=" stroke:none;fill-rule:nonzero;fill:rgb(99.215686%,71.372549%,18.431373%);fill-opacity:1;" />
<path d="M 0 346.800781 L 81.601562 346.800781 L 81.601562 367.199219 L 0 367.199219 Z M 0 346.800781 " style=" stroke:none;fill-rule:nonzero;fill:rgb(99.215686%,71.372549%,18.431373%);fill-opacity:1;" />
<path d="M 295.800781 0 L 316.199219 0 L 316.199219 81.601562 L 295.800781 81.601562 Z M 295.800781 0 " style=" stroke:none;fill-rule:nonzero;fill:rgb(99.215686%,71.372549%,18.431373%);fill-opacity:1;" />
<path d="M 244.800781 0 L 265.199219 0 L 265.199219 81.601562 L 244.800781 81.601562 Z M 244.800781 0 " style=" stroke:none;fill-rule:nonzero;fill:rgb(99.215686%,71.372549%,18.431373%);fill-opacity:1;" />
<path d="M 193.800781 0 L 214.199219 0 L 214.199219 81.601562 L 193.800781 81.601562 Z M 193.800781 0 " style=" stroke:none;fill-rule:nonzero;fill:rgb(99.215686%,71.372549%,18.431373%);fill-opacity:1;" />
<path d="M 142.800781 0 L 163.199219 0 L 163.199219 81.601562 L 142.800781 81.601562 Z M 142.800781 0 " style=" stroke:none;fill-rule:nonzero;fill:rgb(99.215686%,71.372549%,18.431373%);fill-opacity:1;" />
<path d="M 91.800781 0 L 112.199219 0 L 112.199219 81.601562 L 91.800781 81.601562 Z M 91.800781 0 " style=" stroke:none;fill-rule:nonzero;fill:rgb(99.215686%,71.372549%,18.431373%);fill-opacity:1;" />
<path d="M 499.800781 0 L 520.199219 0 L 520.199219 81.601562 L 499.800781 81.601562 Z M 499.800781 0 " style=" stroke:none;fill-rule:nonzero;fill:rgb(99.215686%,71.372549%,18.431373%);fill-opacity:1;" />
<path d="M 448.800781 0 L 469.199219 0 L 469.199219 81.601562 L 448.800781 81.601562 Z M 448.800781 0 " style=" stroke:none;fill-rule:nonzero;fill:rgb(99.215686%,71.372549%,18.431373%);fill-opacity:1;" />
<path d="M 397.800781 0 L 418.199219 0 L 418.199219 81.601562 L 397.800781 81.601562 Z M 397.800781 0 " style=" stroke:none;fill-rule:nonzero;fill:rgb(99.215686%,71.372549%,18.431373%);fill-opacity:1;" />
<path d="M 346.800781 0 L 367.199219 0 L 367.199219 81.601562 L 346.800781 81.601562 Z M 346.800781 0 " style=" stroke:none;fill-rule:nonzero;fill:rgb(99.215686%,71.372549%,18.431373%);fill-opacity:1;" />
<path d="M 530.398438 295.800781 L 571.199219 295.800781 L 571.199219 316.199219 L 530.398438 316.199219 Z M 530.398438 295.800781 " style=" stroke:none;fill-rule:nonzero;fill:rgb(100%,63.529412%,18.823529%);fill-opacity:1;" />
<path d="M 530.398438 244.800781 L 571.199219 244.800781 L 571.199219 265.199219 L 530.398438 265.199219 Z M 530.398438 244.800781 " style=" stroke:none;fill-rule:nonzero;fill:rgb(100%,63.529412%,18.823529%);fill-opacity:1;" />
<path d="M 530.398438 193.800781 L 571.199219 193.800781 L 571.199219 214.199219 L 530.398438 214.199219 Z M 530.398438 193.800781 " style=" stroke:none;fill-rule:nonzero;fill:rgb(100%,63.529412%,18.823529%);fill-opacity:1;" />
<path d="M 530.398438 142.800781 L 571.199219 142.800781 L 571.199219 163.199219 L 530.398438 163.199219 Z M 530.398438 142.800781 " style=" stroke:none;fill-rule:nonzero;fill:rgb(100%,63.529412%,18.823529%);fill-opacity:1;" />
<path d="M 530.398438 91.800781 L 571.199219 91.800781 L 571.199219 112.199219 L 530.398438 112.199219 Z M 530.398438 91.800781 " style=" stroke:none;fill-rule:nonzero;fill:rgb(100%,63.529412%,18.823529%);fill-opacity:1;" />
<path d="M 530.398438 499.800781 L 571.199219 499.800781 L 571.199219 520.199219 L 530.398438 520.199219 Z M 530.398438 499.800781 " style=" stroke:none;fill-rule:nonzero;fill:rgb(100%,63.529412%,18.823529%);fill-opacity:1;" />
<path d="M 530.398438 448.800781 L 571.199219 448.800781 L 571.199219 469.199219 L 530.398438 469.199219 Z M 530.398438 448.800781 " style=" stroke:none;fill-rule:nonzero;fill:rgb(100%,63.529412%,18.823529%);fill-opacity:1;" />
<path d="M 530.398438 397.800781 L 571.199219 397.800781 L 571.199219 418.199219 L 530.398438 418.199219 Z M 530.398438 397.800781 " style=" stroke:none;fill-rule:nonzero;fill:rgb(100%,63.529412%,18.823529%);fill-opacity:1;" />
<path d="M 530.398438 346.800781 L 571.199219 346.800781 L 571.199219 367.199219 L 530.398438 367.199219 Z M 530.398438 346.800781 " style=" stroke:none;fill-rule:nonzero;fill:rgb(100%,63.529412%,18.823529%);fill-opacity:1;" />
<path d="M 295.800781 530.398438 L 316.199219 530.398438 L 316.199219 612 L 295.800781 612 Z M 295.800781 530.398438 " style=" stroke:none;fill-rule:nonzero;fill:rgb(99.215686%,71.372549%,18.431373%);fill-opacity:1;" />
<path d="M 244.800781 530.398438 L 265.199219 530.398438 L 265.199219 612 L 244.800781 612 Z M 244.800781 530.398438 " style=" stroke:none;fill-rule:nonzero;fill:rgb(99.215686%,71.372549%,18.431373%);fill-opacity:1;" />
<path d="M 193.800781 530.398438 L 214.199219 530.398438 L 214.199219 612 L 193.800781 612 Z M 193.800781 530.398438 " style=" stroke:none;fill-rule:nonzero;fill:rgb(99.215686%,71.372549%,18.431373%);fill-opacity:1;" />
<path d="M 142.800781 530.398438 L 163.199219 530.398438 L 163.199219 612 L 142.800781 612 Z M 142.800781 530.398438 " style=" stroke:none;fill-rule:nonzero;fill:rgb(99.215686%,71.372549%,18.431373%);fill-opacity:1;" />
<path d="M 91.800781 530.398438 L 112.199219 530.398438 L 112.199219 612 L 91.800781 612 Z M 91.800781 530.398438 " style=" stroke:none;fill-rule:nonzero;fill:rgb(99.215686%,71.372549%,18.431373%);fill-opacity:1;" />
<path d="M 499.800781 530.398438 L 520.199219 530.398438 L 520.199219 612 L 499.800781 612 Z M 499.800781 530.398438 " style=" stroke:none;fill-rule:nonzero;fill:rgb(99.215686%,71.372549%,18.431373%);fill-opacity:1;" />
<path d="M 448.800781 530.398438 L 469.199219 530.398438 L 469.199219 612 L 448.800781 612 Z M 448.800781 530.398438 " style=" stroke:none;fill-rule:nonzero;fill:rgb(99.215686%,71.372549%,18.431373%);fill-opacity:1;" />
<path d="M 397.800781 530.398438 L 418.199219 530.398438 L 418.199219 612 L 397.800781 612 Z M 397.800781 530.398438 " style=" stroke:none;fill-rule:nonzero;fill:rgb(99.215686%,71.372549%,18.431373%);fill-opacity:1;" />
<path d="M 346.800781 530.398438 L 367.199219 530.398438 L 367.199219 612 L 346.800781 612 Z M 346.800781 530.398438 " style=" stroke:none;fill-rule:nonzero;fill:rgb(99.215686%,71.372549%,18.431373%);fill-opacity:1;" />
<path d="M 295.800781 530.398438 L 316.199219 530.398438 L 316.199219 571.199219 L 295.800781 571.199219 Z M 295.800781 530.398438 " style=" stroke:none;fill-rule:nonzero;fill:rgb(100%,63.529412%,18.823529%);fill-opacity:1;" />
<path d="M 346.800781 530.398438 L 367.199219 530.398438 L 367.199219 571.199219 L 346.800781 571.199219 Z M 346.800781 530.398438 " style=" stroke:none;fill-rule:nonzero;fill:rgb(100%,63.529412%,18.823529%);fill-opacity:1;" />
<path d="M 397.800781 530.398438 L 418.199219 530.398438 L 418.199219 571.199219 L 397.800781 571.199219 Z M 397.800781 530.398438 " style=" stroke:none;fill-rule:nonzero;fill:rgb(100%,63.529412%,18.823529%);fill-opacity:1;" />
<path d="M 448.800781 530.398438 L 469.199219 530.398438 L 469.199219 571.199219 L 448.800781 571.199219 Z M 448.800781 530.398438 " style=" stroke:none;fill-rule:nonzero;fill:rgb(100%,63.529412%,18.823529%);fill-opacity:1;" />
<path d="M 499.800781 530.398438 L 520.199219 530.398438 L 520.199219 571.199219 L 499.800781 571.199219 Z M 499.800781 530.398438 " style=" stroke:none;fill-rule:nonzero;fill:rgb(100%,63.529412%,18.823529%);fill-opacity:1;" />
<path d="M 91.800781 530.398438 L 112.199219 530.398438 L 112.199219 571.199219 L 91.800781 571.199219 Z M 91.800781 530.398438 " style=" stroke:none;fill-rule:nonzero;fill:rgb(100%,63.529412%,18.823529%);fill-opacity:1;" />
<path d="M 142.800781 530.398438 L 163.199219 530.398438 L 163.199219 571.199219 L 142.800781 571.199219 Z M 142.800781 530.398438 " style=" stroke:none;fill-rule:nonzero;fill:rgb(100%,63.529412%,18.823529%);fill-opacity:1;" />
<path d="M 193.800781 530.398438 L 214.199219 530.398438 L 214.199219 571.199219 L 193.800781 571.199219 Z M 193.800781 530.398438 " style=" stroke:none;fill-rule:nonzero;fill:rgb(100%,63.529412%,18.823529%);fill-opacity:1;" />
<path d="M 244.800781 530.398438 L 265.199219 530.398438 L 265.199219 571.199219 L 244.800781 571.199219 Z M 244.800781 530.398438 " style=" stroke:none;fill-rule:nonzero;fill:rgb(100%,63.529412%,18.823529%);fill-opacity:1;" />
<path d="M 0 295.800781 L 81.601562 295.800781 L 81.601562 316.199219 L 0 316.199219 Z M 0 295.800781 " style=" stroke:none;fill-rule:nonzero;fill:rgb(99.215686%,71.372549%,18.431373%);fill-opacity:1;" />
<path d="M 0 244.800781 L 81.601562 244.800781 L 81.601562 265.199219 L 0 265.199219 Z M 0 244.800781 " style=" stroke:none;fill-rule:nonzero;fill:rgb(99.215686%,71.372549%,18.431373%);fill-opacity:1;" />
<path d="M 0 193.800781 L 81.601562 193.800781 L 81.601562 214.199219 L 0 214.199219 Z M 0 193.800781 " style=" stroke:none;fill-rule:nonzero;fill:rgb(99.215686%,71.372549%,18.431373%);fill-opacity:1;" />
<path d="M 0 142.800781 L 81.601562 142.800781 L 81.601562 163.199219 L 0 163.199219 Z M 0 142.800781 " style=" stroke:none;fill-rule:nonzero;fill:rgb(99.215686%,71.372549%,18.431373%);fill-opacity:1;" />
<path d="M 0 91.800781 L 81.601562 91.800781 L 81.601562 112.199219 L 0 112.199219 Z M 0 91.800781 " style=" stroke:none;fill-rule:nonzero;fill:rgb(99.215686%,71.372549%,18.431373%);fill-opacity:1;" />
<path d="M 0 499.800781 L 81.601562 499.800781 L 81.601562 520.199219 L 0 520.199219 Z M 0 499.800781 " style=" stroke:none;fill-rule:nonzero;fill:rgb(99.215686%,71.372549%,18.431373%);fill-opacity:1;" />
<path d="M 0 448.800781 L 81.601562 448.800781 L 81.601562 469.199219 L 0 469.199219 Z M 0 448.800781 " style=" stroke:none;fill-rule:nonzero;fill:rgb(99.215686%,71.372549%,18.431373%);fill-opacity:1;" />
<path d="M 0 397.800781 L 81.601562 397.800781 L 81.601562 418.199219 L 0 418.199219 Z M 0 397.800781 " style=" stroke:none;fill-rule:nonzero;fill:rgb(99.215686%,71.372549%,18.431373%);fill-opacity:1;" />
<path d="M 0 346.800781 L 81.601562 346.800781 L 81.601562 367.199219 L 0 367.199219 Z M 0 346.800781 " style=" stroke:none;fill-rule:nonzero;fill:rgb(99.215686%,71.372549%,18.431373%);fill-opacity:1;" />
<path d="M 122.398438 61.199219 L 489.601562 61.199219 C 523.402344 61.199219 550.800781 88.597656 550.800781 122.398438 L 550.800781 489.601562 C 550.800781 523.402344 523.402344 550.800781 489.601562 550.800781 L 122.398438 550.800781 C 88.597656 550.800781 61.199219 523.402344 61.199219 489.601562 L 61.199219 122.398438 C 61.199219 88.597656 88.597656 61.199219 122.398438 61.199219 Z M 122.398438 61.199219 " style=" stroke:none;fill-rule:nonzero;fill:rgb(26.27451%,59.607843%,81.960784%);fill-opacity:1;" />
<path d="M 112.996094 550.003906 C 116.105469 550.515625 119.25 550.777344 122.398438 550.800781 L 489.601562 550.800781 C 523.402344 550.800781 550.800781 523.402344 550.800781 489.601562 L 550.800781 122.398438 C 550.78125 119.246094 550.515625 116.105469 550.003906 112.996094 Z M 112.996094 550.003906 " style=" stroke:none;fill-rule:nonzero;fill:rgb(24.313725%,54.901961%,78.039216%);fill-opacity:1;" />
<path d="M 479.398438 510 L 132.601562 510 C 115.699219 510 102 496.300781 102 479.398438 L 102 132.601562 C 102 115.699219 115.699219 102 132.601562 102 L 479.398438 102 C 496.300781 102 510 115.699219 510 132.601562 L 510 479.398438 C 510 496.300781 496.300781 510 479.398438 510 Z M 132.601562 122.398438 C 126.96875 122.398438 122.398438 126.96875 122.398438 132.601562 L 122.398438 479.398438 C 122.398438 485.03125 126.96875 489.601562 132.601562 489.601562 L 479.398438 489.601562 C 485.03125 489.601562 489.601562 485.03125 489.601562 479.398438 L 489.601562 132.601562 C 489.601562 126.96875 485.03125 122.398438 479.398438 122.398438 Z M 132.601562 122.398438 " style=" stroke:none;fill-rule:nonzero;fill:rgb(21.960784%,49.411765%,70.196078%);fill-opacity:1;" />
<path d="M 448.800781 142.800781 L 469.199219 142.800781 L 469.199219 163.199219 L 448.800781 163.199219 Z M 448.800781 142.800781 " style=" stroke:none;fill-rule:nonzero;fill:rgb(36.862745%,70.196078%,81.960784%);fill-opacity:1;" />
<path d="M 142.800781 448.800781 L 163.199219 448.800781 L 163.199219 469.199219 L 142.800781 469.199219 Z M 142.800781 448.800781 " style=" stroke:none;fill-rule:nonzero;fill:rgb(36.862745%,70.196078%,81.960784%);fill-opacity:1;" />
<path d="M 163.199219 193.800781 L 142.800781 193.800781 L 142.800781 163.199219 C 142.800781 151.929688 151.929688 142.800781 163.199219 142.800781 L 193.800781 142.800781 L 193.800781 163.199219 L 163.199219 163.199219 Z M 163.199219 193.800781 " style=" stroke:none;fill-rule:nonzero;fill:rgb(36.862745%,70.196078%,81.960784%);fill-opacity:1;" />
<path d="M 448.800781 469.199219 L 418.199219 469.199219 L 418.199219 448.800781 L 448.800781 448.800781 L 448.800781 418.199219 L 469.199219 418.199219 L 469.199219 448.800781 C 469.199219 460.070312 460.070312 469.199219 448.800781 469.199219 Z M 448.800781 469.199219 " style=" stroke:none;fill-rule:nonzero;fill:rgb(36.862745%,70.196078%,81.960784%);fill-opacity:1;" />
</g>
</svg>