<svg xmlns="http://www.w3.org/2000/svg" height="816" viewBox="0 0 612 612" width="816"><style><![CDATA[.B{fill:rgb(99.215686%,71.372549%,18.431373%)}.C{fill:rgb(100%,63.529412%,18.823529%)}]]></style><g class="B"><path d="M530.398 295.8H612v20.4h-81.602zm0-51H612v20.4h-81.602zm0-51H612v20.4h-81.602zm0-51H612v20.4h-81.602zm0 0"/><path d="M530.398 91.8H612v20.4h-81.602zm0 408H612v20.4h-81.602zm0 0"/><path d="M530.398 448.8H612v20.4h-81.602zm0-51H612v20.4h-81.602zm0-51H612v20.4h-81.602zM295.8 530.398h20.4V612h-20.4zm-51 0h20.4V612h-20.4zm-51 0h20.4V612h-20.4zm-51 0h20.4V612h-20.4zm-51 0h20.4V612H91.8zm0 0"/><path d="M499.8 530.398h20.4V612h-20.4zm-51 0h20.4V612h-20.4zm-51 0h20.4V612h-20.4zm-51 0h20.4V612h-20.4zM0 295.8h81.602v20.4H0zm0-51h81.602v20.4H0zm0-51h81.602v20.4H0zm0-51h81.602v20.4H0zm0-51h81.602v20.4H0zm0 408h81.602v20.4H0zm0 0"/><path d="M0 448.8h81.602v20.4H0zm0-51h81.602v20.4H0zm0-51h81.602v20.4H0zM295.8 0h20.4v81.602h-20.4zm0 0"/><path d="M244.8 0h20.4v81.602h-20.4zm-51 0h20.4v81.602h-20.4zm-51 0h20.4v81.602h-20.4zm-51 0h20.4v81.602H91.8zm408 0h20.4v81.602h-20.4zm-51 0h20.4v81.602h-20.4zm-51 0h20.4v81.602h-20.4zm-51 0h20.4v81.602h-20.4zm0 0"/></g><g class="C"><path d="M530.398 295.8h40.8v20.4h-40.8zm0-51h40.8v20.4h-40.8zm0-51h40.8v20.4h-40.8zm0-51h40.8v20.4h-40.8zm0 0"/><path d="M530.398 91.8h40.8v20.4h-40.8zm0 408h40.8v20.4h-40.8zm0 0"/><path d="M530.398 448.8h40.8v20.4h-40.8zm0-51h40.8v20.4h-40.8zm0-51h40.8v20.4h-40.8zm0 0"/></g><g class="B"><path d="M295.8 530.398h20.4V612h-20.4zm-51 0h20.4V612h-20.4zm-51 0h20.4V612h-20.4zm-51 0h20.4V612h-20.4zm0 0"/><path d="M91.8 530.398h20.4V612H91.8zm408 0h20.4V612h-20.4zm0 0"/><path d="M448.8 530.398h20.4V612h-20.4zm-51 0h20.4V612h-20.4zm-51 0h20.4V612h-20.4zm0 0"/></g><g class="C"><path d="M295.8 530.398h20.4v40.8h-20.4zm51 0h20.4v40.8h-20.4zm51 0h20.4v40.8h-20.4zm51 0h20.4v40.8h-20.4zm0 0"/><path d="M499.8 530.398h20.4v40.8h-20.4zm-408 0h20.4v40.8H91.8zm0 0"/><path d="M142.8 530.398h20.4v40.8h-20.4zm51 0h20.4v40.8h-20.4zm51 0h20.4v40.8h-20.4zm0 0"/></g><g class="B"><path d="M0 295.8h81.602v20.4H0zm0-51h81.602v20.4H0zm0-51h81.602v20.4H0zm0-51h81.602v20.4H0zm0 0"/><path d="M0 91.8h81.602v20.4H0zm0 408h81.602v20.4H0zm0 0"/><path d="M0 448.8h81.602v20.4H0zm0-51h81.602v20.4H0zm0-51h81.602v20.4H0zm0 0"/></g><path d="M122.398 61.2h367.203c33.8 0 61.2 27.398 61.2 61.2v367.203c0 33.8-27.398 61.2-61.2 61.2H122.398c-33.8 0-61.2-27.398-61.2-61.2V122.398c0-33.8 27.398-61.2 61.2-61.2zm0 0" fill="rgb(26.27451%,59.607843%,81.960784%)"/><path d="M112.996 550.004c3.11.512 6.254.773 9.402.797h367.203c33.8 0 61.2-27.398 61.2-61.2V122.398c-.02-3.152-.285-6.293-.797-9.402zm0 0" fill="rgb(24.313725%,54.901961%,78.039216%)"/><path d="M479.398 510H132.602C115.7 510 102 496.3 102 479.398V132.602C102 115.7 115.7 102 132.602 102h346.797C496.3 102 510 115.7 510 132.602v346.797C510 496.3 496.3 510 479.398 510zM132.602 122.398a10.21 10.21 0 0 0-10.203 10.203v346.797a10.21 10.21 0 0 0 10.203 10.203h346.797a10.21 10.21 0 0 0 10.203-10.203V132.602a10.21 10.21 0 0 0-10.203-10.203zm0 0" fill="rgb(21.960784%,49.411765%,70.196078%)"/><g fill="rgb(36.862745%,70.196078%,81.960784%)"><path d="M448.8 142.8h20.4v20.4h-20.4zm-306 306h20.4v20.4h-20.4zm0 0"/><path d="M163.2 193.8h-20.4v-30.6c0-11.27 9.13-20.398 20.398-20.398H193.8V163.2h-30.6zm285.6 275.4h-30.6v-20.4h30.6v-30.6h20.4v30.6c0 11.27-9.13 20.398-20.398 20.398zm0 0"/></g></svg>