<svg xmlns="http://www.w3.org/2000/svg" xmlns:xlink="http://www.w3.org/1999/xlink" viewBox="0 0 58 58"><path d="M25.677 47h24v11h-24z" fill="#c8d2d6"/><path d="M41.677 58h-16V47h9.426c3.63 0 6.574 2.943 6.574 6.574V58z" fill="#e7eced"/><circle cx="35.177" cy="52.5" r="2.5" fill="#7383bf"/><g fill="#fbce9d"><use xlink:href="#B"/><use xlink:href="#B" x="5" y="5"/><use xlink:href="#B" x="10" y="10"/><use xlink:href="#B" x="15" y="15"/><path d="M28.177 33h-10a3.51 3.51 0 0 1-3.5-3.5 3.51 3.51 0 0 1 3.5-3.5h10a3.51 3.51 0 0 1 3.5 3.5 3.51 3.51 0 0 1-3.5 3.5z"/></g><path d="M48.813 31.563l-11.12 11.12c-.896.896-2.35.896-3.244 0L24.767 33h-6.59c-.578.283-2.155-.738-1.55-.22L27.44 43.55c.074.074.16.127.238.194V47h20v-4.5c1.82-1.37 3-3.538 3-6a7.47 7.47 0 0 0-1.865-4.937z" fill="#f7b563"/><path d="M25.77 2.89L10.212 18.446l7.592 7.592c.125-.013.246-.038.373-.038h10a3.51 3.51 0 0 1 3.5 3.5 3.51 3.51 0 0 1-3.5 3.5h-3.41l6.355 6.355 15.556-15.557L25.77 2.89z" fill="#424a60"/><path d="M25.77 2.9L23.552.672c-.896-.896-2.35-.896-3.244 0L7.995 12.984c-.896.896-.896 2.35 0 3.245l2.217 2.217L25.77 2.9zm24.235 24.236l-3.328-3.328L31.12 39.355l3.327 3.327c.896.896 2.35.896 3.244 0L50.004 30.37c.897-.895.897-2.348.001-3.244z" fill="#e7eced"/><circle cx="41.177" cy="33.5" r="2" fill="#fff"/><path d="M15.677 11c-.256 0-.512-.098-.707-.293a1 1 0 0 1 0-1.414l2-2a1 1 0 0 1 1.414 1.414l-2 2c-.195.195-.45.293-.707.293z" fill="#424a60"/><defs ><path id="B" d="M33.58 10.702c1.233-.542 2.096-1.77 2.096-3.202a3.5 3.5 0 0 0-3.5-3.5c-1.433 0-2.66.863-3.202 2.096l4.606 4.606z"/></defs></svg>